<svg width="256" height="256" viewBox="0 0 256 256" fill="none" xmlns="http://www.w3.org/2000/svg">
  <rect width="256" height="256" rx="48" fill="#F8FAFC"/>
  <rect x="22" y="22" width="212" height="212" rx="38" fill="white" stroke="#CBD5E1" stroke-width="4"/>
  <rect x="42" y="78" width="58" height="42" rx="12" fill="#FFF7ED" stroke="#EA580C" stroke-width="6"/>
  <rect x="152" y="44" width="62" height="42" rx="12" fill="#EFF6FF" stroke="#2563EB" stroke-width="6"/>
  <rect x="138" y="156" width="62" height="44" rx="12" fill="#F0FDF4" stroke="#16A34A" stroke-width="6"/>
  <path d="M100 99H130V72H152" stroke="#EA580C" stroke-width="10" stroke-linecap="round" stroke-linejoin="round"/>
  <path d="M183 86V120H169V156" stroke="#2563EB" stroke-width="10" stroke-linecap="round" stroke-linejoin="round"/>
  <path d="M138 178H94V122H42" stroke="#16A34A" stroke-width="10" stroke-linecap="round" stroke-linejoin="round"/>
  <path d="M144 72L128 64V80L144 72Z" fill="#EA580C"/>
  <path d="M169 148L161 132H177L169 148Z" fill="#2563EB"/>
  <path d="M50 122L66 114V130L50 122Z" fill="#16A34A"/>
</svg>
