<svg width="1280" height="400" viewBox="0 0 1280 400" fill="none" xmlns="http://www.w3.org/2000/svg">
  <rect width="1280" height="400" rx="32" fill="#F8FAFC"/>
  <rect x="36" y="36" width="1208" height="328" rx="28" fill="url(#bg)" stroke="#CBD5E1" stroke-width="2"/>
  <rect x="92" y="96" width="232" height="144" rx="20" fill="#FFF7ED" stroke="#EA580C" stroke-width="4"/>
  <rect x="524" y="78" width="232" height="144" rx="20" fill="#EFF6FF" stroke="#2563EB" stroke-width="4"/>
  <rect x="956" y="168" width="232" height="144" rx="20" fill="#F0FDF4" stroke="#16A34A" stroke-width="4"/>
  <path d="M324 168H488V150H524" stroke="#EA580C" stroke-width="10" stroke-linecap="round" stroke-linejoin="round"/>
  <path d="M756 150H852V240H956" stroke="#2563EB" stroke-width="10" stroke-linecap="round" stroke-linejoin="round"/>
  <path d="M1082 168V110H642" stroke="#16A34A" stroke-width="10" stroke-linecap="round" stroke-linejoin="round"/>
  <path d="M512 150L486 138V162L512 150Z" fill="#EA580C"/>
  <path d="M944 240L918 228V252L944 240Z" fill="#2563EB"/>
  <path d="M642 110L668 98V122L642 110Z" fill="#16A34A"/>
  <circle cx="208" cy="150" r="20" fill="#EA580C"/>
  <circle cx="640" cy="150" r="20" fill="#2563EB"/>
  <circle cx="1072" cy="240" r="20" fill="#16A34A"/>
  <text x="92" y="300" fill="#0F172A" font-family="Segoe UI, Arial, sans-serif" font-size="44" font-weight="700">draw-io-skill</text>
  <text x="92" y="336" fill="#334155" font-family="Segoe UI, Arial, sans-serif" font-size="22">XML editing, PNG export, SVG overlap linting, and text-overflow checks for diagram workflows.</text>
  <text x="134" y="154" fill="#7C2D12" font-family="Segoe UI, Arial, sans-serif" font-size="20" font-weight="700">draw.io</text>
  <text x="560" y="154" fill="#1E3A8A" font-family="Segoe UI, Arial, sans-serif" font-size="20" font-weight="700">SVG lint</text>
  <text x="988" y="244" fill="#166534" font-family="Segoe UI, Arial, sans-serif" font-size="20" font-weight="700">skill repo</text>
  <defs>
    <linearGradient id="bg" x1="68" y1="52" x2="1212" y2="348" gradientUnits="userSpaceOnUse">
      <stop stop-color="#FFFFFF"/>
      <stop offset="1" stop-color="#F1F5F9"/>
    </linearGradient>
  </defs>
</svg>
